<?xml version="1.0" standalone="no"?><!DOCTYPE svg PUBLIC "-//W3C//DTD SVG 1.1//EN" "http://www.w3.org/Graphics/SVG/1.1/DTD/svg11.dtd"><svg t="1594225345216" class="icon" viewBox="0 0 1024 1024" version="1.1" xmlns="http://www.w3.org/2000/svg" p-id="1486" xmlns:xlink="http://www.w3.org/1999/xlink" width="200" height="200"><defs><style type="text/css"></style></defs><path d="M837.193 960.361H185.065c-45.021 0-81.516-36.495-81.516-81.516v-407.58c0-45.021 36.495-81.516 81.516-81.516h81.516v-81.516c0-135.06 109.488-244.548 244.548-244.548s244.548 109.488 244.548 244.548v81.516h81.516c45.021 0 81.516 36.495 81.516 81.516v407.58c0 45.021-36.495 81.516-81.516 81.516zM674.161 308.233c0-90.039-72.994-163.032-163.032-163.032s-163.032 72.994-163.032 163.032v81.516h326.064v-81.516z m163.032 163.032H185.065v407.58h652.128v-407.58z m-326.064 81.516c45.021 0 81.516 36.495 81.516 81.516s-36.495 81.516-81.516 81.516-81.516-36.495-81.516-81.516 36.495-81.516 81.516-81.516z m0 163.032c22.511 0 40.758 18.247 40.758 40.758 0 22.511-18.247 40.758-40.758 40.758s-40.758-18.247-40.758-40.758c0-22.511 18.247-40.758 40.758-40.758z" p-id="1487"></path></svg>